<svg width="32" height="32" viewBox="0 0 32 32" fill="none" xmlns="http://www.w3.org/2000/svg">
<path d="M16 2.66666C11.5817 2.66666 8 6.24838 8 10.6667C8 16.6667 16 25.3333 16 25.3333C16 25.3333 24 16.6667 24 10.6667C24 6.24838 20.4183 2.66666 16 2.66666ZM16 13.3333C14.5272 13.3333 13.3333 12.1394 13.3333 10.6667C13.3333 9.1939 14.5272 8 16 8C17.4728 8 18.6667 9.1939 18.6667 10.6667C18.6667 12.1394 17.4728 13.3333 16 13.3333Z" stroke="#D97C56" stroke-width="2.5" stroke-linecap="round" stroke-linejoin="round"/>
<path d="M8 22C8 22 10.5 25.5 16 25.5C21.5 25.5 24 22 24 22" stroke="#D97C56" stroke-width="2.5" stroke-linecap="round" stroke-linejoin="round"/>
</svg>
